<?xml version="1.0" encoding="UTF-8"?>
<svg version="1.1" xmlns="http://www.w3.org/2000/svg" width="514" height="360">
<path d="M0 0 C1.94981148 2.92471722 2.44026451 4.40592065 3.078125 7.76171875 C3.26608643 8.70781006 3.45404785 9.65390137 3.64770508 10.62866211 C3.8464624 11.63807861 4.04521973 12.64749512 4.25 13.6875 C9.94308757 41.00286201 23.01280683 66.49281805 42 87 C42.49338867 87.5372168 42.98677734 88.07443359 43.49511719 88.62792969 C72.40459417 119.75410778 112.81169446 136.32349495 154.921875 138.125 C193.50514084 138.90841657 233.56022744 125.70166774 262.3125 99.5 C263.11300781 98.7265625 263.91351563 97.953125 264.73828125 97.15625 C267 95 267 95 269.6015625 92.921875 C296.76427485 71.15631397 310.38037425 33.02270594 316 0 C316.66 0 317.32 0 318 0 C323.91973001 31.19128281 316.6651414 64.87130445 303 93 C302.47921875 94.0828125 301.9584375 95.165625 301.421875 96.28125 C293.35723681 112.09733654 282.42349335 125.44259834 270 138 C269.11441406 138.90621094 268.22882813 139.81242188 267.31640625 140.74609375 C265.39752588 142.61319994 263.53220395 144.23973677 261.375 145.8125 C260.69566406 146.30878906 260.01632812 146.80507813 259.31640625 147.31640625 C258.55199219 147.87199219 257.78757812 148.42757812 257 149 C256.08089844 149.68964844 255.16179687 150.37929688 254.21484375 151.08984375 C253.25707031 151.80269531 252.29929687 152.51554688 251.3125 153.25 C249.97638672 154.24773437 249.97638672 154.24773437 248.61328125 155.265625 C246.12509844 156.91697503 243.75741083 157.8989673 241 159 C240.67 159.66 240.34 160.32 240 161 C237.53937966 162.36799831 235.0899008 163.64245466 232.5625 164.875 C231.83329346 165.23432617 231.10408691 165.59365234 230.3527832 165.96386719 C224.99259847 168.57835977 219.59360471 170.92829455 214 173 C213.21367187 173.32484375 212.42734375 173.6496875 211.6171875 173.984375 C180.01738405 186.54698799 139.0454785 186.93298314 107.3125 174.5625 C106.219375 174.046875 105.12625 173.53125 104 173 C102.44112211 172.36601973 100.87822519 171.74187591 99.3125 171.125 C93.51264629 168.81935707 87.75581606 166.41309127 82 164 C82 163.34 82 162.68 82 162 C81.20335937 161.79375 80.40671875 161.5875 79.5859375 161.375 C74.80305173 159.54103944 70.85360783 156.85953704 66.625 154 C65.37783203 153.18015625 65.37783203 153.18015625 64.10546875 152.34375 C63.32042969 151.8178125 62.53539062 151.291875 61.7265625 150.75 C61.01064941 150.27046875 60.29473633 149.7909375 59.55712891 149.296875 C59.04327637 148.86890625 58.52942383 148.4409375 58 148 C58 147.34 58 146.68 58 146 C57.01 146 56.02 146 55 146 C55 145.34 55 144.68 55 144 C54.34 144 53.68 144 53 144 C53 143.34 53 142.68 53 142 C52.34 142 51.68 142 51 142 C49.28092574 140.38744325 47.62431389 138.70796954 46 137 C45.08863281 136.06285156 44.17726562 135.12570312 43.23828125 134.16015625 C37.83906962 128.48328659 32.81066503 122.69045424 28.25 116.3125 C27.81985596 115.71252197 27.38971191 115.11254395 26.9465332 114.49438477 C24 110.26860415 24 110.26860415 24 108 C23.34 108 22.68 108 22 108 C19 102.25 19 102.25 19 100 C18.34 99.67 17.68 99.34 17 99 C15.27409273 95.94748714 13.92730259 92.70117068 12.5 89.5 C12.09652344 88.62601562 11.69304687 87.75203125 11.27734375 86.8515625 C9.35114288 82.56687806 7.77950914 78.51925013 6.84375 73.90625 C6.5653125 72.6171875 6.286875 71.328125 6 70 C5.34 69.67 4.68 69.34 4 69 C3.18359375 66.26953125 3.18359375 66.26953125 2.4375 62.8125 C2.18871094 61.68457031 1.93992187 60.55664062 1.68359375 59.39453125 C1.05416048 56.26894545 0.49952973 53.14867512 0 50 C-0.17660156 48.93007812 -0.35320312 47.86015625 -0.53515625 46.7578125 C-1.75807141 38.33328586 -2.18684649 30.07767689 -2.1875 21.5625 C-2.1882251 20.55654785 -2.1889502 19.5505957 -2.18969727 18.51416016 C-2.06847264 2.06847264 -2.06847264 2.06847264 0 0 Z " fill="#30B453" transform="translate(94,132)"/>
<path d="M0 0 C27.39 0 54.78 0 83 0 C83.33 11.55 83.66 23.1 84 35 C87.3 35.99 90.6 36.98 94 38 C94 27.44 94 16.88 94 6 C103.24 6 112.48 6 122 6 C122 19.86 122 33.72 122 48 C125.96 48.66 129.92 49.32 134 50 C135.46566406 50.28101563 136.93132812 50.56203125 138.44140625 50.8515625 C156.12757656 54.23702013 175.20433244 55.90945792 190.94140625 45.5859375 C197.00236873 40.9165812 198.58980438 34.20869736 200 27 C200.480412 23.00426558 200.7966016 19.0188719 201 15 C201.99 15.33 202.98 15.66 204 16 C208.49282326 27.25979163 209.08790244 42.39178147 204.3359375 53.59765625 C200.42374971 60.63273079 194.62538532 65.58307645 188 70 C187.01 70 186.02 70 185 70 C184.67 70.66 184.34 71.32 184 72 C171.89677718 76.61955069 158.65201771 77.33892663 145.84179688 77.26074219 C143.73799315 77.24993834 141.63502949 77.26075237 139.53125 77.2734375 C133.2348736 77.28039026 127.21888944 77.17412648 121.10693359 75.55273438 C118.7094622 74.92378012 116.31358703 74.49085633 113.87109375 74.0703125 C112.98929443 73.9168335 112.10749512 73.76335449 111.19897461 73.60522461 C110.28768799 73.44675049 109.37640137 73.28827637 108.4375 73.125 C100.4024978 71.69746838 92.517157 70.00757397 84.625 67.9375 C80.09787962 66.76669301 75.53917323 65.77635597 70.96484375 64.80859375 C67.47286524 63.85623597 64.32043918 62.43921059 61 61 C23.20833856 47.30335214 -14.24421225 44.39585866 -54 48 C-51.93790324 41.81370972 -43.94069463 38.85449387 -38.4375 35.9375 C-26.61444964 30.18452147 -13.17920017 26 0 26 C0 17.42 0 8.84 0 0 Z M10.3190918 6.26098633 C8.71711911 8.37293367 8.64787801 9.3892584 8.70703125 12.01171875 C8.71669922 12.76904297 8.72636719 13.52636719 8.73632812 14.30664062 C8.76146484 15.09232422 8.78660156 15.87800781 8.8125 16.6875 C8.82603516 17.48478516 8.83957031 18.28207031 8.85351562 19.10351562 C8.88882911 21.06929967 8.94263553 23.03473582 9 25 C12.96 25 16.92 25 21 25 C21.02690844 22.37493198 21.04679404 19.75013827 21.0625 17.125 C21.07087891 16.37863281 21.07925781 15.63226563 21.08789062 14.86328125 C21.20688084 10.80154422 21.20688084 10.80154422 20 7 C19.34 7 18.68 7 18 7 C18 6.34 18 5.68 18 5 C13.89599627 4.59369498 13.89599627 4.59369498 10.3190918 6.26098633 Z M27 7 C26.72345612 8.93681136 26.72345612 8.93681136 26.8046875 11.1328125 C26.81113281 11.93847656 26.81757813 12.74414062 26.82421875 13.57421875 C26.84097656 14.41597656 26.85773438 15.25773438 26.875 16.125 C26.88402344 16.97449219 26.89304687 17.82398438 26.90234375 18.69921875 C26.92594353 20.79959884 26.96181517 22.89983444 27 25 C31.0527516 25.98248524 34.83861737 26.08159574 39 26 C38.89037184 22.8742604 38.75968759 19.74975219 38.625 16.625 C38.5940625 15.73554688 38.563125 14.84609375 38.53125 13.9296875 C38.49257812 13.07890625 38.45390625 12.228125 38.4140625 11.3515625 C38.3826416 10.56604004 38.3512207 9.78051758 38.31884766 8.97119141 C38.1600535 6.76997061 38.1600535 6.76997061 36 5 C30.97000426 4.41355715 30.97000426 4.41355715 27 7 Z M45 7 C44.72285104 9.13252093 44.72285104 9.13252093 44.8046875 11.5703125 C44.81113281 12.46621094 44.81757813 13.36210937 44.82421875 14.28515625 C44.84097656 15.22230469 44.85773438 16.15945312 44.875 17.125 C44.88402344 18.06988281 44.89304687 19.01476562 44.90234375 19.98828125 C44.92595332 22.32562827 44.96182506 24.66284549 45 27 C50.94 27.99 50.94 27.99 57 29 C56.88651017 25.37429848 56.75975535 21.74991899 56.625 18.125 C56.5940625 17.09246094 56.563125 16.05992187 56.53125 14.99609375 C56.49257812 14.00996094 56.45390625 13.02382812 56.4140625 12.0078125 C56.3826416 11.09660645 56.3512207 10.18540039 56.31884766 9.24658203 C56.20117489 6.80068814 56.20117489 6.80068814 54 5 C48.97000426 4.41355715 48.97000426 4.41355715 45 7 Z M63.33081055 6.71582031 C61.77108751 9.39290135 61.65075698 10.90804829 61.70703125 13.984375 C61.71669922 14.91894531 61.72636719 15.85351562 61.73632812 16.81640625 C61.76146484 17.78449219 61.78660156 18.75257813 61.8125 19.75 C61.82603516 20.73355469 61.83957031 21.71710938 61.85351562 22.73046875 C61.88880803 25.15388077 61.94261341 27.57701049 62 30 C65.96 30.99 69.92 31.98 74 33 C74.08071599 28.89544235 74.14036813 24.79246164 74.1875 20.6875 C74.21263672 19.52025391 74.23777344 18.35300781 74.26367188 17.15039062 C74.27333984 16.03212891 74.28300781 14.91386719 74.29296875 13.76171875 C74.3086792 12.73006592 74.32438965 11.69841309 74.34057617 10.63549805 C74.21185272 7.98400535 74.21185272 7.98400535 72.66918945 6.16723633 C69.47540551 3.93387652 66.06822357 3.90193429 63.33081055 6.71582031 Z " fill="#01A757" transform="translate(175,135)"/>
<path d="M0 0 C0.33 0 0.66 0 1 0 C1.56278462 31.16095157 -1.18618808 58.56527704 -15 87 C-15.52078125 88.0828125 -16.0415625 89.165625 -16.578125 90.28125 C-24.64276319 106.09733654 -35.57650665 119.44259834 -48 132 C-48.88558594 132.90621094 -49.77117187 133.81242188 -50.68359375 134.74609375 C-52.60247412 136.61319994 -54.46779605 138.23973677 -56.625 139.8125 C-57.30433594 140.30878906 -57.98367188 140.80507813 -58.68359375 141.31640625 C-59.44800781 141.87199219 -60.21242188 142.42757812 -61 143 C-61.91910156 143.68964844 -62.83820313 144.37929688 -63.78515625 145.08984375 C-64.74292969 145.80269531 -65.70070313 146.51554688 -66.6875 147.25 C-68.02361328 148.24773437 -68.02361328 148.24773437 -69.38671875 149.265625 C-71.87490156 150.91697503 -74.24258917 151.8989673 -77 153 C-77.33 153.66 -77.66 154.32 -78 155 C-80.46062034 156.36799831 -82.9100992 157.64245466 -85.4375 158.875 C-86.16670654 159.23432617 -86.89591309 159.59365234 -87.6472168 159.96386719 C-93.00740153 162.57835977 -98.40639529 164.92829455 -104 167 C-104.78632813 167.32484375 -105.57265625 167.6496875 -106.3828125 167.984375 C-137.98261595 180.54698799 -178.9545215 180.93298314 -210.6875 168.5625 C-211.780625 168.046875 -212.87375 167.53125 -214 167 C-215.55887789 166.36601973 -217.12177481 165.74187591 -218.6875 165.125 C-224.48735371 162.81935707 -230.24418394 160.41309127 -236 158 C-236 157.34 -236 156.68 -236 156 C-236.79664063 155.79375 -237.59328125 155.5875 -238.4140625 155.375 C-243.19694827 153.54103944 -247.14639217 150.85953704 -251.375 148 C-252.62216797 147.18015625 -252.62216797 147.18015625 -253.89453125 146.34375 C-254.67957031 145.8178125 -255.46460938 145.291875 -256.2734375 144.75 C-256.98935059 144.27046875 -257.70526367 143.7909375 -258.44287109 143.296875 C-258.95672363 142.86890625 -259.47057617 142.4409375 -260 142 C-260 141.34 -260 140.68 -260 140 C-260.99 140 -261.98 140 -263 140 C-263 139.34 -263 138.68 -263 138 C-263.66 138 -264.32 138 -265 138 C-265 137.34 -265 136.68 -265 136 C-265.66 136 -266.32 136 -267 136 C-268.71907426 134.38744325 -270.37568611 132.70796954 -272 131 C-272.91136719 130.06285156 -273.82273437 129.12570312 -274.76171875 128.16015625 C-280.16093038 122.48328659 -285.18933497 116.69045424 -289.75 110.3125 C-290.18014404 109.71252197 -290.61028809 109.11254395 -291.0534668 108.49438477 C-294 104.26860415 -294 104.26860415 -294 102 C-294.66 102 -295.32 102 -296 102 C-299 96.25 -299 96.25 -299 94 C-299.66 93.67 -300.32 93.34 -301 93 C-302.72590727 89.94748714 -304.07269741 86.70117068 -305.5 83.5 C-305.90347656 82.62601562 -306.30695313 81.75203125 -306.72265625 80.8515625 C-308.64885712 76.56687806 -310.22049086 72.51925013 -311.15625 67.90625 C-311.4346875 66.6171875 -311.713125 65.328125 -312 64 C-312.66 63.67 -313.32 63.34 -314 63 C-314.81640625 60.26953125 -314.81640625 60.26953125 -315.5625 56.8125 C-315.81128906 55.68457031 -316.06007813 54.55664062 -316.31640625 53.39453125 C-316.94583952 50.26894545 -317.50047027 47.14867512 -318 44 C-318.17660156 42.93007812 -318.35320312 41.86015625 -318.53515625 40.7578125 C-320.31315749 28.50935951 -320.2011902 16.35617353 -320 4 C-319.67 4 -319.34 4 -319 4 C-318.97421875 5.05574219 -318.9484375 6.11148438 -318.921875 7.19921875 C-317.55124338 47.24549901 -302.00150947 84.30659276 -274 113 C-273.175 113.89847656 -272.35 114.79695313 -271.5 115.72265625 C-252.92126115 135.40592378 -228.673227 147.4645331 -203 155 C-201.89785156 155.33644531 -200.79570312 155.67289063 -199.66015625 156.01953125 C-187.50558585 159.55952808 -175.5204646 160.37534593 -162.9375 160.3125 C-161.77489655 160.30926727 -161.77489655 160.30926727 -160.58880615 160.30596924 C-141.01473448 160.21863682 -123.65759739 156.93396368 -105 151 C-103.85273438 150.64421875 -102.70546875 150.2884375 -101.5234375 149.921875 C-73.82310093 140.33054399 -46.92698825 118.72661488 -30.66796875 94.484375 C-29.33612124 92.5006396 -27.95924826 90.58638709 -26.54296875 88.6640625 C-24.02443539 85.14653139 -22.0223269 81.50676347 -20.125 77.625 C-19.78621826 76.93438477 -19.44743652 76.24376953 -19.09838867 75.53222656 C-8.58731126 53.80949656 -2.37908037 31.77081994 -1.34082031 7.55786133 C-1.09915808 2.19831616 -1.09915808 2.19831616 0 0 Z " fill="#1A8556" transform="translate(412,138)"/>
<path d="M0 0 C0.99 0.33 1.98 0.66 3 1 C7.49282326 12.25979163 8.08790244 27.39178147 3.3359375 38.59765625 C-0.57625029 45.63273079 -6.37461468 50.58307645 -13 55 C-13.99 55 -14.98 55 -16 55 C-16.33 55.66 -16.66 56.32 -17 57 C-29.10322282 61.61955069 -42.34798229 62.33892663 -55.15820312 62.26074219 C-57.26200685 62.24993834 -59.36497051 62.26075237 -61.46875 62.2734375 C-67.7651264 62.28039026 -73.78111056 62.17412648 -79.89306641 60.55273438 C-82.2905378 59.92378012 -84.68641297 59.49085633 -87.12890625 59.0703125 C-88.01070557 58.9168335 -88.89250488 58.76335449 -89.80102539 58.60522461 C-90.71231201 58.44675049 -91.62359863 58.28827637 -92.5625 58.125 C-100.5975022 56.69746838 -108.482843 55.00757397 -116.375 52.9375 C-120.90212038 51.76669301 -125.46082677 50.77635597 -130.03515625 49.80859375 C-133.52713476 48.85623597 -136.67956082 47.43921059 -140 46 C-177.79166144 32.30335214 -215.24421225 29.39585866 -255 33 C-253.37670921 28.13012764 -249.40283367 26.34284865 -245 24 C-240.73331217 22.37634663 -236.42456106 21.11628834 -232 20 C-231.372146 19.82194824 -230.74429199 19.64389648 -230.09741211 19.46044922 C-197.49157638 10.98225004 -160.51916386 22.95351047 -129.43438721 31.88551331 C-125.64576347 32.97244261 -121.85495939 34.05153361 -118.0625 35.125 C-117.31152039 35.33770538 -116.56054077 35.55041077 -115.7868042 35.76956177 C-71.06543746 48.79071215 -71.06543746 48.79071215 -26 44 C-25.18660156 43.70996094 -24.37320313 43.41992188 -23.53515625 43.12109375 C-18.46531782 41.10496832 -13.4040345 38.37817942 -10 34 C-10 32.68 -10 31.36 -10 30 C-8.88625 29.0409375 -8.88625 29.0409375 -7.75 28.0625 C-1.17349995 21.97176416 -0.55689337 10.57905854 -0.078125 2.16796875 C-0.05234375 1.45253906 -0.0265625 0.73710937 0 0 Z " fill="#198456" transform="translate(376,150)"/>
<path d="M0 0 C2.11601786 2.00048815 3.69702557 3.98226931 5.25 6.4375 C9.26978017 12.0817931 14.3540873 13.84325392 20.75 15.8125 C31.99456677 19.4338705 39.60252156 25.20447004 45.375 35.4375 C46.56436611 40.31390106 46.58721167 45.238365 45 50 C45.66 50 46.32 50 47 50 C47 52.31 47 54.62 47 57 C45.515 56.505 45.515 56.505 44 56 C43.67 56.99 43.34 57.98 43 59 C14.95 59 -13.1 59 -42 59 C-42.495 57.515 -42.495 57.515 -43 56 C-43.99 56 -44.98 56 -46 56 C-46 54.02 -46 52.04 -46 50 C-45.34 50 -44.68 50 -44 50 C-44.495 48.515 -44.495 48.515 -45 47 C-46.04355403 39.71002969 -44.25673597 33.95750858 -40 28 C-33.12628154 20.81212622 -24.86024924 17.40392205 -15.63671875 14.171875 C-7.56658964 11.31465415 -4.11666238 7.21729744 0 0 Z " fill="#3AB750" transform="translate(216,76)"/>
<path d="M0 0 C2.98422185 0.88720109 4.75719102 1.74935848 6.9375 4 C8.15282545 7.43150715 7.79213465 8.6083516 6.9375 12.0625 C5.88478179 15.85111543 5.88478179 15.85111543 7.375 19.3125 C8.88119816 20.28077024 10.39974468 21.23151545 11.94921875 22.12890625 C16.59512736 24.86836068 19.18387237 26.65844814 21 32 C21.34403308 34.33177975 21.67949202 36.66487041 22 39 C22.99 39.495 22.99 39.495 24 40 C24 41.65 24 43.3 24 45 C21.03 44.505 21.03 44.505 18 44 C18.11729912 50.53293617 18.24213487 57.06569654 18.37231445 63.59838867 C18.41573588 65.82263896 18.45740545 68.04692415 18.49731445 70.27124023 C18.55484306 73.46088195 18.61858684 76.6503468 18.68359375 79.83984375 C18.70030624 80.84087631 18.71701874 81.84190887 18.73423767 82.87327576 C18.7641555 84.25459435 18.7641555 84.25459435 18.79467773 85.66381836 C18.81799416 86.88626503 18.81799416 86.88626503 18.84178162 88.13340759 C18.79913863 90.01409119 18.79913863 90.01409119 20 91 C20.125 93.5 20.125 93.5 20 96 C19 97 19 97 16.13256836 97.11352539 C14.88096924 97.10828857 13.62937012 97.10305176 12.33984375 97.09765625 C11.34314415 97.09553383 11.34314415 97.09553383 10.3263092 97.09336853 C8.19666101 97.08775518 6.06711661 97.07520054 3.9375 97.0625 C2.49674631 97.05748671 1.05599097 97.05292351 -0.38476562 97.04882812 C-3.92321102 97.03778145 -7.46159539 97.02050792 -11 97 C-12.125 92.25 -12.125 92.25 -11 90 C-10.88213309 88.51987176 -10.82307062 87.03483534 -10.79467773 85.55029297 C-10.77473251 84.62948944 -10.75478729 83.70868591 -10.73423767 82.75997925 C-10.70916893 81.26617233 -10.70916893 81.26617233 -10.68359375 79.7421875 C-10.66281265 78.72399933 -10.64203156 77.70581116 -10.62062073 76.6567688 C-10.55510534 73.39624945 -10.49623098 70.13564794 -10.4375 66.875 C-10.39431668 64.66796017 -10.35070245 62.46092872 -10.30664062 60.25390625 C-10.19942195 54.83602499 -10.09765926 49.41806154 -10 44 C-12.31 44 -14.62 44 -17 44 C-17 42.68 -17 41.36 -17 40 C-15.515 39.505 -15.515 39.505 -14 39 C-13.95101563 38.39671875 -13.90203125 37.7934375 -13.8515625 37.171875 C-13.77679688 36.37265625 -13.70203125 35.5734375 -13.625 34.75 C-13.55539062 33.96109375 -13.48578125 33.1721875 -13.4140625 32.359375 C-12.70315778 28.3085594 -11.80644964 26.57395965 -8.3984375 24.1484375 C-7.40070313 23.56320313 -6.40296875 22.97796875 -5.375 22.375 C-3.55186756 21.30174209 -1.7503028 20.18833267 0 19 C0 18.34 0 17.68 0 17 C-1.98 16.34 -3.96 15.68 -6 15 C-6 14.34 -6 13.68 -6 13 C-4.02 12.34 -2.04 11.68 0 11 C1.02703748 5.44506076 1.02703748 5.44506076 0 0 Z " fill="#05A857" transform="translate(279,43)"/>
<path d="M0 0 C5.89584568 -0.10404434 11.44096623 0.13027047 17.25 1.125 C18.01449463 1.25551758 18.77898926 1.38603516 19.56665039 1.52050781 C38.40524311 4.94674244 56.65231852 11.47218523 74.17163086 19.08764648 C107.49184737 33.5446668 144.92474771 36.65064533 180.51416016 29.39575195 C183.0520759 28.99170939 185.43470679 28.93197869 188 29 C180.67017384 37.28589044 165.49813874 41.61034585 155 44 C153.46472656 44.35578125 153.46472656 44.35578125 151.8984375 44.71875 C133.86418448 48.71747572 117.0116101 49.03592656 99 45 C97.90042969 44.75636719 96.80085938 44.51273438 95.66796875 44.26171875 C82.74276099 40.8312548 71.23420441 33.32450861 60.3125 25.8125 C42.18875853 13.41040525 21.13582212 7.98611252 0 3 C0 2.01 0 1.02 0 0 Z " fill="#02A857" transform="translate(163,183)"/>
<path d="M0 0 C0.66 0.33 1.32 0.66 2 1 C1.67 17.17 1.34 33.34 1 50 C-14.51 50.33 -30.02 50.66 -46 51 C-45.01 50.505 -45.01 50.505 -44 50 C-44.495 48.515 -44.495 48.515 -45 47 C-46.04355403 39.71002969 -44.25673597 33.95750858 -40 28 C-33.12628154 20.81212622 -24.86024924 17.40392205 -15.63671875 14.171875 C-7.56658964 11.31465415 -4.11666238 7.21729744 0 0 Z " fill="#01A857" transform="translate(216,76)"/>
<path d="M0 0 C1.31738914 -0.00021904 1.31738914 -0.00021904 2.66139221 -0.0004425 C5.56701113 0.00025467 8.4725661 0.008038 11.37817383 0.01586914 C13.39170802 0.01773401 15.40524266 0.01915759 17.41877747 0.02015686 C22.7206243 0.0239766 28.02244377 0.03380227 33.32427979 0.04486084 C38.73351674 0.05508662 44.14275812 0.05965699 49.55200195 0.06469727 C60.16724835 0.075425 70.78247444 0.09249493 81.39770508 0.11352539 C81.39770508 2.42352539 81.39770508 4.73352539 81.39770508 7.11352539 C80.40770508 6.78352539 79.41770508 6.45352539 78.39770508 6.11352539 C78.06770508 7.10352539 77.73770508 8.09352539 77.39770508 9.11352539 C49.34770508 9.11352539 21.29770508 9.11352539 -7.60229492 9.11352539 C-7.93229492 8.12352539 -8.26229492 7.13352539 -8.60229492 6.11352539 C-9.59229492 6.11352539 -10.58229492 6.11352539 -11.60229492 6.11352539 C-11.60229492 4.46352539 -11.60229492 2.81352539 -11.60229492 1.11352539 C-7.71853777 -0.18106033 -4.04669375 -0.01751242 0 0 Z " fill="#A1CE43" transform="translate(181.602294921875,125.886474609375)"/>
<path d="M0 0 C2.98422185 0.88720109 4.75719102 1.74935848 6.9375 4 C8.15282545 7.43150715 7.79213465 8.6083516 6.9375 12.0625 C5.88478179 15.85111543 5.88478179 15.85111543 7.375 19.3125 C8.88119816 20.28077024 10.39974468 21.23151545 11.94921875 22.12890625 C16.56571863 24.85101986 19.31554642 26.63080421 21 32 C21.12669579 34.67423148 21.0440585 37.3206927 21 40 C16.17619198 40.0246519 11.35242033 40.04283693 6.52856445 40.05493164 C4.88630536 40.05997174 3.24405077 40.06680378 1.60180664 40.07543945 C-0.75375479 40.08751926 -3.10925709 40.09323139 -5.46484375 40.09765625 C-6.20339096 40.10281754 -6.94193817 40.10797882 -7.7028656 40.11329651 C-9.46898088 40.1134925 -11.23497146 40.06194719 -13 40 C-13.33 39.67 -13.66 39.34 -14 39 C-13.94921875 37.07421875 -13.94921875 37.07421875 -13.6875 34.6875 C-13.60886719 33.90761719 -13.53023438 33.12773438 -13.44921875 32.32421875 C-12.67326425 28.30949766 -11.7926012 26.56410355 -8.3984375 24.1484375 C-7.40070313 23.56320313 -6.40296875 22.97796875 -5.375 22.375 C-3.55186756 21.30174209 -1.7503028 20.18833267 0 19 C0 18.34 0 17.68 0 17 C-1.98 16.34 -3.96 15.68 -6 15 C-6 14.34 -6 13.68 -6 13 C-4.02 12.34 -2.04 11.68 0 11 C1.02703748 5.44506076 1.02703748 5.44506076 0 0 Z " fill="#04A857" transform="translate(279,43)"/>
<path d="M0 0 C2.16308594 1.06762695 2.16308594 1.06762695 4 3 C4.35711867 5.57797437 4.46813593 7.72314113 4.390625 10.29296875 C4.38496521 10.99899734 4.37930542 11.70502594 4.37347412 12.43244934 C4.35110411 14.68482626 4.30091199 16.93560503 4.25 19.1875 C4.22993556 20.71547179 4.21168468 22.24346856 4.1953125 23.77148438 C4.15463952 27.515432 4.0763663 31.25593025 4 35 C-0.62 35 -5.24 35 -10 35 C-10.09185363 30.49662048 -10.1714723 25.99649008 -10.21972656 21.49291992 C-10.2398398 19.96123238 -10.2671345 18.42962161 -10.30175781 16.89819336 C-10.35029315 14.69625927 -10.37296996 12.49534018 -10.390625 10.29296875 C-10.41127014 9.60849167 -10.43191528 8.92401459 -10.45318604 8.21879578 C-10.45468946 5.03186384 -10.40417823 3.42518217 -8.16308594 1.06762695 C-5.22541611 -0.38230873 -3.23768288 -0.40471036 0 0 Z " fill="#A2CE43" transform="translate(286,93)"/>
<path d="M0 0 C2.16308594 1.06762695 2.16308594 1.06762695 4 3 C4.35711867 5.57797437 4.46813593 7.72314113 4.390625 10.29296875 C4.38496521 10.99899734 4.37930542 11.70502594 4.37347412 12.43244934 C4.35110411 14.68482626 4.30091199 16.93560503 4.25 19.1875 C4.22993556 20.71547179 4.21168468 22.24346856 4.1953125 23.77148438 C4.15123802 27.51493756 4.08221074 31.25719795 4 35 C-1.2922317 34.34561841 -5.22578062 33.24096012 -10 31 C-10.09895097 27.06745992 -10.1715042 23.13540254 -10.21972656 19.2019043 C-10.24971281 17.20660986 -10.30053786 15.21166418 -10.3515625 13.21679688 C-10.37089844 11.33637695 -10.37089844 11.33637695 -10.390625 9.41796875 C-10.41157227 8.26063232 -10.43251953 7.1032959 -10.45410156 5.91088867 C-10 3 -10 3 -8.16308594 1.12231445 C-5.22684239 -0.40115187 -3.26630503 -0.40828813 0 0 Z " fill="#A1CE44" transform="translate(286,146)"/>
<path d="M0 0 C4.62 0 9.24 0 14 0 C14 14.52 14 29.04 14 44 C9.38 44 4.76 44 0 44 C0 42.68 0 41.36 0 40 C2.31 40 4.62 40 7 40 C7 29.44 7 18.88 7 8 C3.23570226 6 3.23570226 6 0 5 C0 3.35 0 1.7 0 0 Z " fill="#31B552" transform="translate(283,88)"/>
<path d="M0 0 C4.62 0 9.24 0 14 0 C14 13.86 14 27.72 14 42 C11.36 41.67 8.72 41.34 6 41 C6 30.11 6 19.22 6 8 C4.02 7.01 2.04 6.02 0 5 C0 3.35 0 1.7 0 0 Z " fill="#30B452" transform="translate(283,141)"/>
<path d="M0 0 C1.98 1.65 3.96 3.3 6 5 C7.37591603 5.84579077 8.7692976 6.66470708 10.1875 7.4375 C13.92742359 9.73733807 15.70220297 11.67400992 17 16 C16.67 18.31 16.34 20.62 16 23 C10.72 23 5.44 23 0 23 C0 15.41 0 7.82 0 0 Z " fill="#2FB353" transform="translate(283,59)"/>
<path d="M0 0 C28.71 0 57.42 0 87 0 C86.67 0.99 86.34 1.98 86 3 C57.95 3 29.9 3 1 3 C0.67 2.01 0.34 1.02 0 0 Z " fill="#00A857" transform="translate(173,132)"/>
<path d="M0 0 C3.14968791 0.9363937 4.77116279 1.73425357 6.9375 4.25 C8.3294822 7.85277745 7.52622863 9.54590363 6 13 C5.34 13 4.68 13 4 13 C4 13.66 4 14.32 4 15 C2.68 15 1.36 15 0 15 C-0.33 15.66 -0.66 16.32 -1 17 C-3.475 16.01 -3.475 16.01 -6 15 C-6 14.34 -6 13.68 -6 13 C-4.02 12.34 -2.04 11.68 0 11 C1.02703748 5.44506076 1.02703748 5.44506076 0 0 Z " fill="#2AB053" transform="translate(279,43)"/>
<path d="M0 0 C0.66 0.33 1.32 0.66 2 1 C0.63088196 4.1489715 -0.8752136 6.0478487 -3.5 8.25 C-4.1084375 8.77078125 -4.716875 9.2915625 -5.34375 9.828125 C-7 11 -7 11 -9 11 C-9.33 9.68 -9.66 8.36 -10 7 C-6.81404865 4.36021174 -3.69029454 1.89501612 0 0 Z " fill="#069957" transform="translate(365,181)"/>
<path d="M0 0 C0.66 0.33 1.32 0.66 2 1 C0.25 4.875 0.25 4.875 -2 6 C-2.99 5.67 -3.98 5.34 -5 5 C-5 4.34 -5 3.68 -5 3 C-2.625 1.3125 -2.625 1.3125 0 0 Z " fill="#109156" transform="translate(365,181)"/>
</svg>
